<svg height="479pt" viewBox="-47 0 479 479.88855" width="479pt" xmlns="http://www.w3.org/2000/svg"><path d="m368.445312 231.886719h-82.402343c40.800781-22.398438 66.402343-65.597657 66.402343-112v-8h-35.199218l-33.601563-59.199219c-28.800781-50.398438-92.800781-67.199219-142.398437-39.199219-16 9.601563-29.601563 22.398438-39.203125 39.199219l-34.398438 59.199219h-35.199219v8c0 46.402343 25.597657 89.601562 66.398438 112h-82.398438c-8.800781 0-16 7.203125-16 16v24c0 8.800781 7.199219 16 16 16h7.199219l-15.199219 120c-4 35.203125 20.800782 67.203125 55.199219 71.203125 2.398438 0 5.601563.796875 8 .796875h240.800781c35.199219 0 64-28.796875 64-64 0-2.398438 0-5.597657-.800781-8l-15.199219-120h8c8.800782 0 16-7.199219 16-16v-24c0-8.796875-7.199218-16-16-16zm-252.800781-171.199219c24-42.398438 78.398438-56.800781 120.800781-32.800781 13.597657 8 24.800782 19.203125 32.800782 32.800781l29.597656 51.199219h-212.800781zm-67.199219 67.199219h288c-4 58.402343-52.800781 104-112 104h-64c-58.402343 0-107.199218-45.597657-112-104zm300.800782 320c-8.800782 10.402343-22.402344 16-36 16h-241.601563c-20 0-38.398437-12.796875-44.800781-32h331.199219c-1.597657 5.601562-4.796875 11.203125-8.796875 16zm11.199218-37.597657v5.597657h-336.800781c0-1.597657 0-4 0-5.597657l16-122.402343h305.601563zm-344-138.402343v-24h352v24zm0 0"/><path d="m328.445312 367.886719v-64h-272v64zm-256-48h240v32h-240zm0 0"/><path d="m288.445312 383.886719h40v16h-40zm0 0"/><path d="m232.445312 383.886719h40v16h-40zm0 0"/><path d="m216.445312 39.886719h16v16h-16zm0 0"/><path d="m232.445312 71.886719h16v16h-16zm0 0"/><path d="m184.445312 79.886719h16v16h-16zm0 0"/></svg>